<svg xmlns="http://www.w3.org/2000/svg" viewBox="0 0 800 600" width="100%" height="100%">
  <rect width="100%" height="100%" fill="#f5f5f2"/>
  <!-- Subtle worn specks -->
  <g fill="#111111" opacity="0.04">
    <circle cx="50" cy="40" r="1"/>
    <circle cx="120" cy="95" r="1.5"/>
    <circle cx="210" cy="45" r="0.8"/>
    <circle cx="340" cy="110" r="1.2"/>
    <circle cx="480" cy="60" r="1"/>
    <circle cx="620" cy="130" r="1.5"/>
    <circle cx="710" cy="40" r="0.8"/>
    <circle cx="780" cy="100" r="1.2"/>
    
    <circle cx="90" cy="220" r="1.2"/>
    <circle cx="160" cy="310" r="0.8"/>
    <circle cx="280" cy="240" r="1.5"/>
    <circle cx="410" cy="330" r="1"/>
    <circle cx="530" cy="210" r="1.2"/>
    <circle cx="650" cy="290" r="0.8"/>
    <circle cx="740" cy="250" r="1.5"/>
    
    <circle cx="70" cy="450" r="1.5"/>
    <circle cx="190" cy="520" r="1"/>
    <circle cx="310" cy="470" r="0.8"/>
    <circle cx="460" cy="510" r="1.2"/>
    <circle cx="590" cy="430" r="1.5"/>
    <circle cx="680" cy="540" r="0.8"/>
    <circle cx="760" cy="480" r="1"/>
  </g>
  <!-- Chalky / grunge scratches matching the light references -->
  <g stroke="#ffffff" stroke-width="1.5" opacity="0.6">
    <line x1="20" y1="50" x2="180" y2="210" />
    <line x1="600" y1="350" x2="780" y2="530" />
  </g>
</svg>
